<mxfile host="app.diagrams.net" agent="Mozilla/5.0 (Windows NT 10.0; Win64; x64) AppleWebKit/537.36 (KHTML, like Gecko) Chrome/128.0.0.0 Safari/537.36" version="24.7.16">
  <diagram name="Страница — 1" id="CItRnccAhmN0aGrfga0h">
    <mxGraphModel dx="1050" dy="1743" grid="1" gridSize="10" guides="1" tooltips="1" connect="1" arrows="1" fold="1" page="1" pageScale="1" pageWidth="827" pageHeight="1169" math="0" shadow="0">
      <root>
        <mxCell id="0" />
        <mxCell id="1" parent="0" />
        <mxCell id="Oa190XadUbQe0aYjoDM7-11" style="edgeStyle=orthogonalEdgeStyle;rounded=0;orthogonalLoop=1;jettySize=auto;html=1;entryX=0.5;entryY=0;entryDx=0;entryDy=0;" edge="1" parent="1" source="Oa190XadUbQe0aYjoDM7-7" target="Oa190XadUbQe0aYjoDM7-8">
          <mxGeometry relative="1" as="geometry" />
        </mxCell>
        <mxCell id="Oa190XadUbQe0aYjoDM7-7" value="Получение данных о координатах фигуры и типе фигуры" style="rounded=0;whiteSpace=wrap;html=1;" vertex="1" parent="1">
          <mxGeometry x="310" y="-40" width="120" height="60" as="geometry" />
        </mxCell>
        <mxCell id="Oa190XadUbQe0aYjoDM7-12" style="edgeStyle=orthogonalEdgeStyle;rounded=0;orthogonalLoop=1;jettySize=auto;html=1;entryX=0.5;entryY=0;entryDx=0;entryDy=0;" edge="1" parent="1" source="Oa190XadUbQe0aYjoDM7-8" target="Oa190XadUbQe0aYjoDM7-9">
          <mxGeometry relative="1" as="geometry" />
        </mxCell>
        <mxCell id="Oa190XadUbQe0aYjoDM7-8" value="Перевод координат в числовой вид" style="rounded=0;whiteSpace=wrap;html=1;" vertex="1" parent="1">
          <mxGeometry x="310" y="50" width="120" height="60" as="geometry" />
        </mxCell>
        <mxCell id="Oa190XadUbQe0aYjoDM7-17" style="edgeStyle=orthogonalEdgeStyle;rounded=0;orthogonalLoop=1;jettySize=auto;html=1;entryX=0.5;entryY=0;entryDx=0;entryDy=0;" edge="1" parent="1" source="Oa190XadUbQe0aYjoDM7-9" target="Oa190XadUbQe0aYjoDM7-13">
          <mxGeometry relative="1" as="geometry" />
        </mxCell>
        <mxCell id="Oa190XadUbQe0aYjoDM7-9" value="Вычисление разницы между координатами конечной и начальной точки по x и y" style="rounded=0;whiteSpace=wrap;html=1;" vertex="1" parent="1">
          <mxGeometry x="310" y="140" width="160" height="70" as="geometry" />
        </mxCell>
        <mxCell id="Oa190XadUbQe0aYjoDM7-10" value="Создать словарь возможных разниц координат статичных фигур" style="rounded=0;whiteSpace=wrap;html=1;" vertex="1" parent="1">
          <mxGeometry x="520" y="20" width="120" height="60" as="geometry" />
        </mxCell>
        <mxCell id="Oa190XadUbQe0aYjoDM7-13" value="Тип фигуры" style="swimlane;fontStyle=0;childLayout=stackLayout;horizontal=1;startSize=30;horizontalStack=0;resizeParent=1;resizeParentMax=0;resizeLast=0;collapsible=1;marginBottom=0;whiteSpace=wrap;html=1;" vertex="1" parent="1">
          <mxGeometry x="310" y="250" width="140" height="90" as="geometry" />
        </mxCell>
        <mxCell id="Oa190XadUbQe0aYjoDM7-14" value="Статичная" style="text;strokeColor=none;fillColor=none;align=left;verticalAlign=middle;spacingLeft=4;spacingRight=4;overflow=hidden;points=[[0,0.5],[1,0.5]];portConstraint=eastwest;rotatable=0;whiteSpace=wrap;html=1;" vertex="1" parent="Oa190XadUbQe0aYjoDM7-13">
          <mxGeometry y="30" width="140" height="30" as="geometry" />
        </mxCell>
        <mxCell id="Oa190XadUbQe0aYjoDM7-15" value="Динамичная" style="text;strokeColor=none;fillColor=none;align=left;verticalAlign=middle;spacingLeft=4;spacingRight=4;overflow=hidden;points=[[0,0.5],[1,0.5]];portConstraint=eastwest;rotatable=0;whiteSpace=wrap;html=1;" vertex="1" parent="Oa190XadUbQe0aYjoDM7-13">
          <mxGeometry y="60" width="140" height="30" as="geometry" />
        </mxCell>
        <mxCell id="Oa190XadUbQe0aYjoDM7-28" style="edgeStyle=orthogonalEdgeStyle;rounded=0;orthogonalLoop=1;jettySize=auto;html=1;entryX=0.5;entryY=0;entryDx=0;entryDy=0;" edge="1" parent="1" source="Oa190XadUbQe0aYjoDM7-18" target="Oa190XadUbQe0aYjoDM7-22">
          <mxGeometry relative="1" as="geometry" />
        </mxCell>
        <mxCell id="Oa190XadUbQe0aYjoDM7-18" value="Сравнение полученных разниц координат с возможными разницами для данного типа фигуры" style="rounded=0;whiteSpace=wrap;html=1;" vertex="1" parent="1">
          <mxGeometry x="130" y="360" width="120" height="120" as="geometry" />
        </mxCell>
        <mxCell id="Oa190XadUbQe0aYjoDM7-19" style="edgeStyle=orthogonalEdgeStyle;rounded=0;orthogonalLoop=1;jettySize=auto;html=1;entryX=0.5;entryY=0;entryDx=0;entryDy=0;" edge="1" parent="1" source="Oa190XadUbQe0aYjoDM7-14" target="Oa190XadUbQe0aYjoDM7-18">
          <mxGeometry relative="1" as="geometry" />
        </mxCell>
        <mxCell id="Oa190XadUbQe0aYjoDM7-20" value="Создать список динамичных фигур" style="rounded=0;whiteSpace=wrap;html=1;" vertex="1" parent="1">
          <mxGeometry x="530" y="120" width="120" height="60" as="geometry" />
        </mxCell>
        <mxCell id="Oa190XadUbQe0aYjoDM7-30" style="edgeStyle=orthogonalEdgeStyle;rounded=0;orthogonalLoop=1;jettySize=auto;html=1;entryX=0.5;entryY=0;entryDx=0;entryDy=0;" edge="1" parent="1" source="Oa190XadUbQe0aYjoDM7-21" target="Oa190XadUbQe0aYjoDM7-22">
          <mxGeometry relative="1" as="geometry" />
        </mxCell>
        <mxCell id="Oa190XadUbQe0aYjoDM7-21" value="Проверка на выполнение условий разниц координат фигур" style="rounded=0;whiteSpace=wrap;html=1;" vertex="1" parent="1">
          <mxGeometry x="510" y="410" width="120" height="60" as="geometry" />
        </mxCell>
        <mxCell id="Oa190XadUbQe0aYjoDM7-22" value="Подходит?" style="swimlane;fontStyle=0;childLayout=stackLayout;horizontal=1;startSize=30;horizontalStack=0;resizeParent=1;resizeParentMax=0;resizeLast=0;collapsible=1;marginBottom=0;whiteSpace=wrap;html=1;" vertex="1" parent="1">
          <mxGeometry x="300" y="530" width="140" height="90" as="geometry" />
        </mxCell>
        <mxCell id="Oa190XadUbQe0aYjoDM7-23" value="Да" style="text;strokeColor=none;fillColor=none;align=left;verticalAlign=middle;spacingLeft=4;spacingRight=4;overflow=hidden;points=[[0,0.5],[1,0.5]];portConstraint=eastwest;rotatable=0;whiteSpace=wrap;html=1;" vertex="1" parent="Oa190XadUbQe0aYjoDM7-22">
          <mxGeometry y="30" width="140" height="30" as="geometry" />
        </mxCell>
        <mxCell id="Oa190XadUbQe0aYjoDM7-24" value="Нет" style="text;strokeColor=none;fillColor=none;align=left;verticalAlign=middle;spacingLeft=4;spacingRight=4;overflow=hidden;points=[[0,0.5],[1,0.5]];portConstraint=eastwest;rotatable=0;whiteSpace=wrap;html=1;" vertex="1" parent="Oa190XadUbQe0aYjoDM7-22">
          <mxGeometry y="60" width="140" height="30" as="geometry" />
        </mxCell>
        <mxCell id="Oa190XadUbQe0aYjoDM7-26" value="Вывести True" style="rounded=0;whiteSpace=wrap;html=1;" vertex="1" parent="1">
          <mxGeometry x="80" y="630" width="120" height="60" as="geometry" />
        </mxCell>
        <mxCell id="Oa190XadUbQe0aYjoDM7-27" style="edgeStyle=orthogonalEdgeStyle;rounded=0;orthogonalLoop=1;jettySize=auto;html=1;" edge="1" parent="1" source="Oa190XadUbQe0aYjoDM7-23" target="Oa190XadUbQe0aYjoDM7-26">
          <mxGeometry relative="1" as="geometry" />
        </mxCell>
        <mxCell id="Oa190XadUbQe0aYjoDM7-29" style="edgeStyle=orthogonalEdgeStyle;rounded=0;orthogonalLoop=1;jettySize=auto;html=1;entryX=0.5;entryY=0;entryDx=0;entryDy=0;" edge="1" parent="1" source="Oa190XadUbQe0aYjoDM7-15" target="Oa190XadUbQe0aYjoDM7-21">
          <mxGeometry relative="1" as="geometry" />
        </mxCell>
      </root>
    </mxGraphModel>
  </diagram>
</mxfile>
